# xmcd
#
# Track frame offsets: 
#        150
#        26634
#        51394
#        68354
#        80970
#        99246
#
# Disc length: 1552 seconds
#
# Revision: 0
# Processed by: cddbd v1.5.2PL0 Copyright (c) Steve Scherf et al.
# Submitted via: ExactAudioCopy v0.99pb3
#
DISCID=47060e06
DTITLE=Bichos da Costeira - Bichos da Costeira
DYEAR=1900
DGENRE=
TTITLE0=Nossa Caraguá
TTITLE1=Quando eu Chorei
TTITLE2=Viajando
TTITLE3=Din-Din
TTITLE4=Vanessa
TTITLE5=Bichos da Costeira
EXTD=
EXTT0=
EXTT1=
EXTT2=
EXTT3=
EXTT4=
EXTT5=
PLAYORDER=
